<?xml version="1.0" encoding="UTF-8" standalone="no"?>
<!DOCTYPE svg PUBLIC "-//W3C//DTD SVG 1.1//EN" "http://www.w3.org/Graphics/SVG/1.1/DTD/svg11.dtd">
<svg width="100%" height="100%" viewBox="0 0 200 200" version="1.1" xmlns="http://www.w3.org/2000/svg" xmlns:xlink="http://www.w3.org/1999/xlink" xml:space="preserve" xmlns:serif="http://www.serif.com/" style="fill-rule:evenodd;clip-rule:evenodd;stroke-linejoin:round;stroke-miterlimit:2;">
    <g transform="matrix(3.54318,0,0,3.54318,-416.271,-157.098)">
        <path d="M138.168,56.076L138.168,59.803L143.066,59.803L143.066,61.478L138.168,61.478L138.168,68.603C138.168,69.572 138.352,70.247 138.719,70.63C139.086,71.013 139.727,71.204 140.641,71.204L143.183,71.204L143.183,72.927L140.43,72.927C138.813,72.927 137.672,72.603 137.008,71.954C136.344,71.306 136.012,70.189 136.012,68.603L136.012,61.478L132.508,61.478L132.508,59.803L136.012,59.803L136.012,56.076L138.168,56.076Z" style="fill:rgb(240,246,240);fill-rule:nonzero;"/>
        <path d="M152.64,61.314C151.546,61.314 150.718,61.74 150.156,62.591C149.593,63.443 149.312,64.705 149.312,66.376C149.312,68.04 149.593,69.3 150.156,70.155C150.718,71.011 151.546,71.439 152.64,71.439C153.741,71.439 154.573,71.011 155.136,70.155C155.698,69.3 155.98,68.04 155.98,66.376C155.98,64.705 155.698,63.443 155.136,62.591C154.573,61.74 153.741,61.314 152.64,61.314ZM152.64,59.486C154.46,59.486 155.853,60.076 156.817,61.256C157.782,62.435 158.265,64.142 158.265,66.376C158.265,68.618 157.784,70.327 156.823,71.503C155.862,72.679 154.468,73.267 152.64,73.267C150.82,73.267 149.429,72.679 148.468,71.503C147.507,70.327 147.027,68.618 147.027,66.376C147.027,64.142 147.507,62.435 148.468,61.256C149.429,60.076 150.82,59.486 152.64,59.486Z" style="fill:rgb(240,246,240);fill-rule:nonzero;"/>
        <path d="M141.027,77.258L141.027,71.204L143.183,71.204L143.183,88.707L141.027,88.707L141.027,87.055C140.668,87.703 140.189,88.197 139.592,88.537C138.994,88.877 138.305,89.047 137.524,89.047C135.938,89.047 134.69,88.431 133.78,87.201C132.87,85.971 132.414,84.273 132.414,82.109C132.414,79.977 132.871,78.303 133.785,77.088C134.699,75.873 135.946,75.266 137.524,75.266C138.313,75.266 139.008,75.436 139.609,75.776C140.211,76.116 140.684,76.61 141.027,77.258ZM134.688,82.156C134.688,83.828 134.953,85.09 135.485,85.941C136.016,86.793 136.801,87.219 137.84,87.219C138.879,87.219 139.67,86.789 140.213,85.93C140.756,85.07 141.027,83.813 141.027,82.156C141.027,80.492 140.756,79.233 140.213,78.377C139.67,77.522 138.879,77.094 137.84,77.094C136.801,77.094 136.016,77.52 135.485,78.371C134.953,79.223 134.688,80.485 134.688,82.156Z" style="fill:rgb(240,246,240);fill-rule:nonzero;"/>
        <path d="M146.289,88.707L146.289,86.691L149.16,86.691C148.199,85.644 147.504,84.559 147.074,83.434C146.644,82.309 146.429,81.012 146.429,79.543C146.429,77.114 146.992,75.182 148.117,73.749C149.242,72.315 150.742,71.598 152.617,71.598C154.507,71.598 156.017,72.313 157.146,73.743C158.274,75.172 158.839,77.106 158.839,79.543C158.839,81.012 158.622,82.311 158.188,83.44C157.755,84.568 157.058,85.652 156.097,86.691L159.003,86.691L159.003,88.707L153.577,88.707L153.577,86.691C154.515,86.098 155.245,85.158 155.769,83.873C156.292,82.588 156.554,81.078 156.554,79.344C156.554,77.547 156.202,76.131 155.499,75.096C154.796,74.061 153.843,73.544 152.64,73.544C151.437,73.544 150.486,74.061 149.787,75.096C149.087,76.131 148.738,77.547 148.738,79.344C148.738,81.078 149,82.588 149.523,83.873C150.046,85.158 150.777,86.098 151.714,86.691L151.714,88.707L146.289,88.707Z" style="fill:rgb(240,246,240);fill-rule:nonzero;"/>
    </g>
</svg>
